:FULLY-SPECIFIED
:FORCE-ALL-JOINTS-BE-3DOF
:DEGREES
238
root 5.65864 15.6525 -25.7928 9.14451 24.573 -6.85242
lfemur -37.5371 32.3118 -5.6981
ltibia 50.2069 -0 0
lfoot -16.8001 5.98155 0.0399351
ltoes 2.28474 -0 0
rfemur -15.3271 -8.16724 3.97828
rtibia 33.9048 -0 0
rfoot -40.9089 -11.4399 0.602436
rtoes 56.682 -0 0
lowerback 1.01929 -2.66865 2.57652
upperback -1.16746 -3.4513 3.11753
thorax -1.73145 -1.72996 1.85101
lowerneck -10.3719 -2.02644 0.618853
upperneck 1.98039 -2.77313 -0.0396949
head 2.42335 -1.37226 -0.252005
lclavicle 1.88845e-14 4.77083e-15 0
lhumerus -56.0194 -33.4996 122.111
lradius 62.3849 -0 0
lwrist 18.7127 0 0
lhand 6.25293 12.9854 0.139782
lfingers 7.12502 -0 0
lthumb 31.541 40.0712 0.0521328
rclavicle 1.88845e-14 4.77083e-15 0
rhumerus -34.8571 -17.9446 -65.2237
rradius 94.2287 -0 0
rwrist -43.8291 0 0
rhand -16.1516 -21.3917 1.8084
rfingers 7.12502 -0 0
rthumb 8.21232 -43.5968 6.46301
239
root 5.73119 15.6778 -25.7861 9.09851 26.1068 -7.15846
lfemur -39.2078 32.816 -6.95626
ltibia 50.9582 -0 0
lfoot -16.5778 6.50891 0.0286687
ltoes 3.39497 -0 0
rfemur -14.2199 -7.28979 4.19445
rtibia 33.0199 -0 0
rfoot -41.8445 -13.312 0.431983
rtoes 56.4749 -0 0
lowerback 0.959695 -2.67631 2.70342
upperback -1.29582 -3.4501 3.45109
thorax -1.81706 -1.72938 2.12302
lowerneck -10.17 -2.2758 0.398095
upperneck 1.95744 -3.07192 -0.117729
head 2.37632 -1.52648 -0.254693
lclavicle 1.88845e-14 4.77083e-15 0
lhumerus -56.0279 -32.7635 122.378
lradius 62.7497 -0 0
lwrist 18.6113 0 0
lhand 5.2416 12.5804 0.100323
lfingers 7.12502 -0 0
lthumb 30.5842 39.9114 0.0374188
rclavicle 1.88845e-14 4.77083e-15 0
rhumerus -35.1727 -21.1367 -65.9372
rradius 93.273 -0 0
rwrist -47.7469 0 0
rhand -21.5755 -22.2974 1.28693
rfingers 7.12502 -0 0
rthumb 3.46023 -47.1927 4.58727
240
root 5.80373 15.7032 -25.7795 9.04264 27.6404 -7.47006
lfemur -40.9007 33.289 -8.23846
ltibia 51.7096 -0 0
lfoot -16.3556 7.03621 0.0153566
ltoes 4.50521 -0 0
rfemur -13.1113 -6.41665 4.42724
rtibia 32.1349 -0 0
rfoot -42.774 -15.1811 0.231082
rtoes 56.2677 -0 0
lowerback 0.900085 -2.68383 2.83033
upperback -1.42416 -3.44816 3.78464
thorax -1.90268 -1.7284 2.39503
lowerneck -9.96717 -2.52438 0.176419
upperneck 1.93489 -3.37074 -0.195666
head 2.32929 -1.68071 -0.257255
lclavicle 1.88845e-14 4.77083e-15 0
lhumerus -56.0322 -32.0273 122.642
lradius 63.1145 -0 0
lwrist 18.5098 0 0
lhand 4.23057 12.1762 0.0537235
lfingers 7.12502 -0 0
lthumb 29.6274 39.752 0.0200396
rclavicle 1.88845e-14 4.77083e-15 0
rhumerus -35.4521 -24.3324 -66.6482
rradius 92.3173 -0 0
rwrist -51.6646 0 0
rhand -26.9896 -23.1497 0.68228
rfingers 7.12502 -0 0
rthumb -1.15478 -50.6132 2.4255
241
root 5.87628 15.7285 -25.7728 8.97641 29.1737 -7.78792
lfemur -42.6148 33.7298 -9.54369
ltibia 52.461 0 0
lfoot -16.1335 7.56346 0
ltoes 5.61544 0 0
rfemur -12.001 -5.54814 4.67659
rtibia 31.2499 0 0
rfoot -43.6965 -17.0466 0
rtoes 56.0605 0 0
lowerback 0.840458 -2.69122 2.95724
upperback -1.55249 -3.44547 4.11819
thorax -1.98829 -1.72702 2.66704
lowerneck -9.7633 -2.77217 -0.0461811
upperneck 1.91274 -3.66959 -0.27351
head 2.28226 -1.83494 -0.259691
lclavicle -1.66731e-14 1.59028e-15 0
lhumerus -56.0326 -31.2912 122.904
lradius 63.4793 0 0
lwrist 18.4083 0 0
lhand 3.2199 11.7729 0
lfingers 7.12502 0 0
lthumb 28.6707 39.5928 0
rclavicle -1.66731e-14 1.59028e-15 0
rhumerus -35.6945 -27.531 -67.3613
rradius 91.3616 0 0
rwrist -55.5824 0 0
rhand -32.3938 -23.941 0
rfingers 7.12502 0 0
rthumb -5.62894 -773.846 0
242
root 5.97268 15.7631 -25.7652 8.92019 30.6738 -7.20534
lfemur -41.9292 32.6916 -10.0881
ltibia 51.7509 -0 0
lfoot -15.8993 6.218 -0.0416856
ltoes 8.94457 -0 0
rfemur -12.7597 -5.07586 4.44737
rtibia 34.0717 -0 0
rfoot -40.0387 -15.7704 0.671517
rtoes 51.9333 -0 0
lowerback 1.03402 -2.70246 2.61329
upperback -1.49062 -3.46409 3.96191
thorax -2.02089 -1.73233 2.70708
lowerneck -9.71901 -3.1572 -0.210212
upperneck 1.97206 -4.16692 -0.181754
head 2.30676 -2.08153 -0.228672
lclavicle -1.66731e-14 1.59028e-15 0
lhumerus -55.6716 -31.4844 122.503
lradius 63.3287 -0 0
lwrist 18.5216 0 0
lhand 3.62465 11.7303 -0.0022582
lfingers 7.12502 -0 0
lthumb 29.0561 39.4736 -0.00601726
rclavicle -1.66731e-14 1.59028e-15 0
rhumerus -36.2038 -26.0407 -67.5229
rradius 87.7167 -0 0
rwrist -50.0291 0 0
rhand -30.3544 -23.0776 0.237246
rfingers 7.12502 -0 0
rthumb -3.66572 -52.8799 0.255401
243
root 6.06907 15.7976 -25.7575 8.88109 32.1744 -6.6151
lfemur -41.2398 31.6589 -10.6408
ltibia 51.0407 -0 0
lfoot -15.6643 4.87239 -0.0778613
ltoes 12.2737 -0 0
rfemur -13.5197 -4.60664 4.21205
rtibia 36.8934 -0 0
rfoot -36.3662 -14.4538 1.26008
rtoes 47.8061 -0 0
lowerback 1.22765 -2.71254 2.2693
upperback -1.4287 -3.48255 3.80561
thorax -2.05349 -1.73762 2.74712
lowerneck -9.6736 -3.5421 -0.374606
upperneck 2.03063 -4.66434 -0.0904534
head 2.33114 -2.32814 -0.197754
lclavicle -1.66731e-14 1.59028e-15 0
lhumerus -55.3083 -31.6754 122.099
lradius 63.178 -0 0
lwrist 18.6349 0 0
lhand 4.02941 11.6877 -0.00421554
lfingers 7.12502 -0 0
lthumb 29.4416 39.3545 -0.0112328
rclavicle -1.66731e-14 1.59028e-15 0
rhumerus -36.7116 -24.5517 -67.697
rradius 84.0718 -0 0
rwrist -44.4757 0 0
rhand -28.3117 -22.2063 0.44359
rfingers 7.12502 -0 0
rthumb -1.69843 -51.9056 0.477519
244
root 6.16547 15.8322 -25.7499 8.8599 33.6753 -6.016
lfemur -40.5463 30.632 -11.202
ltibia 50.3306 -0 0
lfoot -15.4284 3.52663 -0.108506
ltoes 15.6028 -0 0
rfemur -14.2812 -4.14058 3.97066
rtibia 39.7152 -0 0
rfoot -32.6802 -13.1017 1.76295
rtoes 43.6788 -0 0
lowerback 1.42134 -2.72145 1.92527
upperback -1.36672 -3.50083 3.64929
thorax -2.0861 -1.74289 2.78716
lowerneck -9.62706 -3.92687 -0.539377
upperneck 2.08844 -5.16185 0.000404998
head 2.35538 -2.57476 -0.166935
lclavicle -1.66731e-14 1.59028e-15 0
lhumerus -54.9427 -31.8642 121.693
lradius 63.0274 -0 0
lwrist 18.7483 0 0
lhand 4.43417 11.6451 -0.00587192
lfingers 7.12502 -0 0
lthumb 29.827 39.2352 -0.0156464
rclavicle -1.66731e-14 1.59028e-15 0
rhumerus -37.2184 -23.0642 -67.8835
rradius 80.4268 -0 0
rwrist -38.9224 0 0
rhand -26.266 -21.3282 0.618724
rfingers 7.12502 -0 0
rthumb 0.272428 -50.9242 0.666028
245
root 6.26186 15.8668 -25.7423 8.85752 35.1762 -5.40672
lfemur -39.8484 29.6109 -11.7717
ltibia 49.6205 -0 0
lfoot -15.1919 2.18076 -0.133603
ltoes 18.932 -0 0
rfemur -15.0443 -3.67776 3.72322
rtibia 42.537 -0 0
rfoot -28.9824 -11.7198 2.17774
rtoes 39.5516 -0 0
lowerback 1.61508 -2.72921 1.58122
upperback -1.3047 -3.51895 3.49295
thorax -2.11871 -1.74813 2.82721
lowerneck -9.57938 -4.3115 -0.704542
upperneck 2.14551 -5.65946 0.0908336
head 2.3795 -2.82139 -0.136214
lclavicle -1.66731e-14 1.59028e-15 0
lhumerus -54.5748 -32.0508 121.285
lradius 62.8768 -0 0
lwrist 18.8616 0 0
lhand 4.83893 11.6025 -0.00722725
lfingers 7.12502 -0 0
lthumb 30.2125 39.116 -0.0192579
rclavicle -1.66731e-14 1.59028e-15 0
rhumerus -37.7252 -21.5782 -68.0822
rradius 76.7819 -0 0
rwrist -33.3691 0 0
rhand -24.2177 -20.4444 0.762381
rfingers 7.12502 -0 0
rthumb 2.2463 -49.9368 0.820649
246
root 6.35826 15.9013 -25.7346 8.87499 36.6771 -4.78584
lfemur -39.1459 28.596 -12.3499
ltibia 48.9104 -0 0
lfoot -14.9549 0.8348 -0.153138
ltoes 22.2611 -0 0
rfemur -15.8089 -3.21827 3.46975
rtibia 45.3587 -0 0
rfoot -25.2747 -10.3136 2.50247
rtoes 35.4244 -0 0
lowerback 1.80886 -2.7358 1.23713
upperback -1.24262 -3.5369 3.33658
thorax -2.15133 -1.75335 2.86726
lowerneck -9.53057 -4.69599 -0.870115
upperneck 2.20184 -6.15715 0.180845
head 2.40349 -3.06804 -0.105591
lclavicle -1.66731e-14 1.59028e-15 0
lhumerus -54.2046 -32.2352 120.874
lradius 62.7261 -0 0
lwrist 18.9749 0 0
lhand 5.24369 11.5599 -0.00828147
lfingers 7.12502 -0 0
lthumb 30.5979 38.9967 -0.0220669
rclavicle -1.66731e-14 1.59028e-15 0
rhumerus -38.2324 -20.094 -68.2928
rradius 73.137 -0 0
rwrist -27.8157 0 0
rhand -22.1675 -19.5559 0.874343
rfingers 7.12502 -0 0
rthumb 4.22262 -48.9447 0.941151
247
root 6.45465 15.9359 -25.727 8.9135 38.1777 -4.15181
lfemur -38.4384 27.5873 -12.9366
ltibia 48.2003 -0 0
lfoot -14.7174 -0.511234 -0.167099
ltoes 25.5902 -0 0
rfemur -16.5753 -2.7622 3.21026
rtibia 48.1805 -0 0
rfoot -21.5593 -8.88906 2.73557
rtoes 31.2972 -0 0
lowerback 2.00268 -2.74123 0.893029
upperback -1.1805 -3.55467 3.18019
thorax -2.18394 -1.75855 2.90731
lowerneck -9.48062 -5.08034 -1.03611
upperneck 2.25744 -6.65493 0.270452
head 2.42735 -3.31469 -0.0750634
lclavicle -1.66731e-14 1.59028e-15 0
lhumerus -53.832 -32.4173 120.462
lradius 62.5755 -0 0
lwrist 19.0882 0 0
lhand 5.64845 11.5172 -0.00903452
lfingers 7.12502 -0 0
lthumb 30.9834 38.8774 -0.0240735
rclavicle -1.66731e-14 1.59028e-15 0
rhumerus -38.7407 -18.6115 -68.5155
rradius 69.4921 -0 0
rwrist -22.2624 0 0
rhand -20.1157 -18.664 0.954438
rfingers 7.12502 -0 0
rthumb 6.20078 -47.949 1.02735
248
root 6.55105 15.9705 -25.7194 8.97441 39.6779 -3.50291
lfemur -37.7257 26.5852 -13.532
ltibia 47.4901 -0 0
lfoot -14.4797 -1.85732 -0.175479
ltoes 28.9193 -0 0
rfemur -17.3434 -2.30965 2.94479
rtibia 51.0022 -0 0
rfoot -17.8387 -7.45213 2.87588
rtoes 27.17 -0 0
lowerback 2.19653 -2.7455 0.548907
upperback -1.11832 -3.57228 3.02378
thorax -2.21657 -1.76372 2.94736
lowerneck -9.42952 -5.46455 -1.20255
upperneck 2.31231 -7.1528 0.359666
head 2.45109 -3.56136 -0.044631
lclavicle -1.66731e-14 1.59028e-15 0
lhumerus -53.4572 -32.5971 120.047
lradius 62.4249 -0 0
lwrist 19.2015 0 0
lhand 6.05321 11.4746 -0.00948637
lfingers 7.12502 -0 0
lthumb 31.3689 38.7581 -0.0252775
rclavicle -1.66731e-14 1.59028e-15 0
rhumerus -39.2509 -17.1309 -68.75
rradius 65.8471 -0 0
rwrist -16.709 0 0
rhand -18.0628 -17.7698 1.00255
rfingers 7.12502 -0 0
rthumb 8.1802 -46.9508 1.07913
249
root 6.64745 16.0051 -25.7118 9.05925 41.1774 -2.83726
lfemur -37.0076 25.5897 -14.1361
ltibia 46.78 -0 0
lfoot -14.2419 -3.20342 -0.178273
ltoes 32.2485 -0 0
rfemur -18.1135 -1.86069 2.67335
rtibia 53.824 -0 0
rfoot -14.1153 -6.00899 2.92273
rtoes 23.0428 -0 0
lowerback 2.39041 -2.7486 0.204771
upperback -1.0561 -3.58972 2.86734
thorax -2.24919 -1.76887 2.98742
lowerneck -9.37726 -5.8486 -1.36944
upperneck 2.36646 -7.65075 0.448499
head 2.4747 -3.80805 -0.0142926
lclavicle -1.66731e-14 1.59028e-15 0
lhumerus -53.08 -32.7747 119.63
lradius 62.2742 -0 0
lwrist 19.3148 0 0
lhand 6.45797 11.4319 -0.00963699
lfingers 7.12502 -0 0
lthumb 31.7544 38.6388 -0.0256789
rclavicle -1.66731e-14 1.59028e-15 0
rhumerus -39.7635 -15.6524 -68.9965
rradius 62.2022 -0 0
rwrist -11.1557 0 0
rhand -16.0095 -16.8744 1.01859
rfingers 7.12502 -0 0
rthumb 10.1602 -45.9515 1.09639
